SeanUltraBold.ufo
<glyph name="exclam" format="1">
  <advance width="441"/>
  <unicode hex="0021"/>
  <outline>
    <contour>
      <point x="190" y="229" type="line"/>
      <point x="175" y="722" type="line"/>
      <point x="326" y="722" type="line"/>
      <point x="313" y="229" type="line"/>
    </contour>
    <contour>
      <point x="175" y="148" type="line"/>
      <point x="326" y="148" type="line"/>
      <point x="326" y="0" type="line"/>
      <point x="175" y="0" type="line"/>
    </contour>
  </outline>
</glyph>
<glyph name="quotedbl" format="1">
  <advance width="479"/>
  <unicode hex="0022"/>
  <outline>
    <contour>
      <point x="249" y="658" type="line"/>
      <point x="382" y="658" type="line"/>
      <point x="428" y="846" type="line"/>
      <point x="277" y="846" type="line"/>
    </contour>
    <contour>
      <point x="75" y="658" type="line"/>
      <point x="209" y="658" type="line"/>
      <point x="255" y="846" type="line"/>
      <point x="104" y="846" type="line"/>
    </contour>
  </outline>
</glyph>
<glyph name="numbersign" format="1">
  <advance width="679"/>
  <unicode hex="0023"/>
  <outline>
    <contour>
      <point x="73" y="219" type="line"/>
      <point x="93" y="300" type="line"/>
      <point x="169" y="303" type="line"/>
      <point x="209" y="439" type="line"/>
      <point x="137" y="437" type="line"/>
      <point x="157" y="518" type="line"/>
      <point x="233" y="521" type="line"/>
      <point x="288" y="706" type="line"/>
      <point x="371" y="706" type="line"/>
      <point x="317" y="524" type="line"/>
      <point x="441" y="529" type="line"/>
      <point x="498" y="720" type="line"/>
      <point x="581" y="720" type="line"/>
      <point x="525" y="532" type="line"/>
      <point x="588" y="534" type="line"/>
      <point x="575" y="452" type="line"/>
      <point x="500" y="449" type="line"/>
      <point x="460" y="314" type="line"/>
      <point x="523" y="316" type="line"/>
      <point x="507" y="235" type="line"/>
      <point x="436" y="232" type="line"/>
      <point x="378" y="38" type="line"/>
      <point x="295" y="38" type="line"/>
      <point x="352" y="229" type="line"/>
      <point x="229" y="225" type="line"/>
      <point x="171" y="30" type="line"/>
      <point x="88" y="30" type="line"/>
      <point x="145" y="222" type="line"/>
    </contour>
    <contour>
      <point x="293" y="442" type="line"/>
      <point x="253" y="306" type="line"/>
      <point x="376" y="311" type="line"/>
      <point x="417" y="447" type="line"/>
    </contour>
  </outline>
</glyph>
<glyph name="quotesingle" format="1">
  <advance width="297"/>
  <unicode hex="0027"/>
  <outline>
    <contour>
      <point x="80" y="658" type="line"/>
      <point x="118" y="846" type="line"/>
      <point x="241" y="846" type="line"/>
      <point x="204" y="658" type="line"/>
    </contour>
  </outline>
</glyph>
<glyph name="parenleft" format="1">
  <advance width="481"/>
  <unicode hex="0028"/>
  <outline>
    <contour>
      <point x="409" y="852" type="line"/>
      <point x="276" y="712"/>
      <point x="199" y="535"/>
      <point x="199" y="327" type="curve" smooth="yes"/>
      <point x="199" y="136"/>
      <point x="270" y="-50"/>
      <point x="400" y="-192" type="curve"/>
      <point x="299" y="-295" type="line"/>
      <point x="141" y="-129"/>
      <point x="53" y="93"/>
      <point x="53" y="322" type="curve" smooth="yes"/>
      <point x="53" y="557"/>
      <point x="138" y="772"/>
      <point x="295" y="940" type="curve"/>
    </contour>
  </outline>
</glyph>
<glyph name="parenright" format="1">
  <advance width="483"/>
  <unicode hex="0029"/>
  <outline>
    <contour>
      <point x="279" y="323" type="curve" smooth="yes"/>
      <point x="279" y="521"/>
      <point x="202" y="703"/>
      <point x="69" y="843" type="curve"/>
      <point x="170" y="946" type="line"/>
      <point x="333" y="782"/>
      <point x="427" y="571"/>
      <point x="427" y="321" type="curve" smooth="yes"/>
      <point x="427" y="88"/>
      <point x="336" y="-136"/>
      <point x="172" y="-303" type="curve"/>
      <point x="58" y="-216" type="line"/>
      <point x="200" y="-73"/>
      <point x="279" y="121"/>
    </contour>
  </outline>
</glyph>
<glyph name="plus" format="1">
  <advance width="768"/>
  <unicode hex="002B"/>
  <outline>
    <contour>
      <point x="120" y="255" type="line"/>
      <point x="324" y="255" type="line"/>
      <point x="324" y="18" type="line"/>
      <point x="466" y="18" type="line"/>
      <point x="466" y="255" type="line"/>
      <point x="661" y="255" type="line"/>
      <point x="661" y="388" type="line"/>
      <point x="467" y="388" type="line"/>
      <point x="467" y="588" type="line"/>
      <point x="325" y="588" type="line"/>
      <point x="325" y="389" type="line"/>
      <point x="120" y="389" type="line"/>
    </contour>
  </outline>
</glyph>
<glyph name="comma" format="1">
  <advance width="371"/>
  <unicode hex="002C"/>
  <outline>
    <contour>
      <point x="65" y="-128" type="line"/>
      <point x="165" y="-128" type="line"/>
      <point x="318" y="92" type="line"/>
      <point x="118" y="92" type="line"/>
    </contour>
  </outline>
</glyph>
<glyph name="hyphen" format="1">
  <advance width="432"/>
  <unicode hex="002D"/>
  <outline>
    <contour>
      <point x="88" y="339" type="line"/>
      <point x="88" y="205" type="line"/>
      <point x="359" y="205" type="line"/>
      <point x="359" y="339" type="line"/>
    </contour>
  </outline>
</glyph>
<glyph name="period" format="1">
  <advance width="367"/>
  <unicode hex="002E"/>
  <outline>
    <contour>
      <point x="108" y="173" type="line"/>
      <point x="273" y="173" type="line"/>
      <point x="273" y="0" type="line"/>
      <point x="108" y="0" type="line"/>
    </contour>
  </outline>
</glyph>
<glyph name="slash" format="1">
  <advance width="594"/>
  <unicode hex="002F"/>
  <outline>
    <contour>
      <point x="184" y="-68" type="line"/>
      <point x="34" y="-68" type="line"/>
      <point x="433" y="844" type="line"/>
      <point x="584" y="844" type="line"/>
    </contour>
  </outline>
</glyph>
<glyph name="zero" format="1">
  <advance width="595"/>
  <unicode hex="0030"/>
  <outline>
    <contour>
      <point x="199" y="245" type="curve" smooth="yes"/>
      <point x="199" y="320"/>
      <point x="241" y="389"/>
      <point x="307" y="389" type="curve" smooth="yes"/>
      <point x="374" y="389"/>
      <point x="410" y="326"/>
      <point x="410" y="256" type="curve" smooth="yes"/>
      <point x="410" y="178"/>
      <point x="365" y="106"/>
      <point x="301" y="106" type="curve" smooth="yes"/>
      <point x="234" y="106"/>
      <point x="199" y="175"/>
    </contour>
    <contour>
      <point x="305" y="-27" type="curve" smooth="yes"/>
      <point x="452" y="-27"/>
      <point x="575" y="93"/>
      <point x="575" y="246" type="curve" smooth="yes"/>
      <point x="575" y="397"/>
      <point x="454" y="522"/>
      <point x="303" y="522" type="curve" smooth="yes"/>
      <point x="150" y="522"/>
      <point x="32" y="396"/>
      <point x="32" y="247" type="curve" smooth="yes"/>
      <point x="32" y="90"/>
      <point x="158" y="-27"/>
    </contour>
  </outline>
</glyph>
<glyph name="one" format="1">
  <advance width="375"/>
  <unicode hex="0031"/>
  <outline>
    <contour>
      <point x="160" y="522" type="line"/>
      <point x="20" y="391" type="line"/>
      <point x="111" y="293" type="line"/>
      <point x="160" y="339" type="line"/>
      <point x="160" y="0" type="line"/>
      <point x="327" y="0" type="line"/>
      <point x="327" y="522" type="line"/>
    </contour>
  </outline>
</glyph>
<glyph name="two" format="1">
  <advance width="484"/>
  <unicode hex="0032"/>
  <outline>
    <contour>
      <point x="295" y="315" type="curve" smooth="yes"/>
      <point x="295" y="361"/>
      <point x="259" y="409"/>
      <point x="202" y="409" type="curve" smooth="yes"/>
      <point x="167" y="409"/>
      <point x="134" y="387"/>
      <point x="108" y="354" type="curve"/>
      <point x="27" y="429" type="line"/>
      <point x="82" y="496"/>
      <point x="148" y="538"/>
      <point x="224" y="538" type="curve" smooth="yes"/>
      <point x="351" y="538"/>
      <point x="432" y="446"/>
      <point x="432" y="342" type="curve" smooth="yes"/>
      <point x="432" y="240"/>
      <point x="381" y="168"/>
      <point x="316" y="128" type="curve"/>
      <point x="458" y="128" type="line"/>
      <point x="458" y="4" type="line"/>
      <point x="40" y="4" type="line"/>
      <point x="40" y="128" type="line"/>
      <point x="144" y="128"/>
      <point x="230" y="159"/>
      <point x="277" y="249" type="curve" smooth="yes"/>
      <point x="289" y="271"/>
      <point x="295" y="294"/>
    </contour>
  </outline>
</glyph>
<glyph name="three" format="1">
  <advance width="546"/>
  <unicode hex="0033"/>
  <outline>
    <contour>
      <point x="307" y="306" type="curve" smooth="yes"/>
      <point x="307" y="230"/>
      <point x="232" y="188"/>
      <point x="155" y="188" type="curve"/>
      <point x="157" y="72" type="line"/>
      <point x="158" y="72" type="line" smooth="yes"/>
      <point x="235" y="72"/>
      <point x="330" y="55"/>
      <point x="330" y="-29" type="curve" smooth="yes"/>
      <point x="330" y="-92"/>
      <point x="262" y="-135"/>
      <point x="208" y="-135" type="curve" smooth="yes"/>
      <point x="176" y="-135"/>
      <point x="145" y="-123"/>
      <point x="120" y="-99" type="curve"/>
      <point x="67" y="-222" type="line"/>
      <point x="115" y="-251"/>
      <point x="168" y="-266"/>
      <point x="222" y="-266" type="curve" smooth="yes"/>
      <point x="369" y="-266"/>
      <point x="499" y="-151"/>
      <point x="499" y="-21" type="curve" smooth="yes"/>
      <point x="499" y="65"/>
      <point x="445" y="123"/>
      <point x="386" y="151" type="curve"/>
      <point x="438" y="195"/>
      <point x="470" y="254"/>
      <point x="470" y="323" type="curve" smooth="yes"/>
      <point x="470" y="446"/>
      <point x="365" y="536"/>
      <point x="233" y="536" type="curve" smooth="yes"/>
      <point x="159" y="536"/>
      <point x="88" y="504"/>
      <point x="38" y="448" type="curve"/>
      <point x="97" y="347" type="line"/>
      <point x="118" y="385"/>
      <point x="157" y="407"/>
      <point x="198" y="407" type="curve" smooth="yes"/>
      <point x="261" y="407"/>
      <point x="307" y="360"/>
    </contour>
  </outline>
</glyph>
<glyph name="four" format="1">
  <advance width="634"/>
  <unicode hex="0034"/>
  <outline>
    <contour>
      <point x="215" y="140" type="line"/>
      <point x="339" y="325" type="line"/>
      <point x="337" y="140" type="line"/>
    </contour>
    <contour>
      <point x="48" y="140" type="line"/>
      <point x="48" y="23" type="line"/>
      <point x="337" y="23" type="line"/>
      <point x="335" y="-222" type="line"/>
      <point x="501" y="-222" type="line"/>
      <point x="503" y="23" type="line"/>
      <point x="601" y="23" type="line"/>
      <point x="601" y="140" type="line"/>
      <point x="504" y="140" type="line"/>
      <point x="507" y="527" type="line"/>
      <point x="340" y="527" type="line"/>
    </contour>
  </outline>
</glyph>
<glyph name="five" format="1">
  <advance width="540"/>
  <unicode hex="0035"/>
  <outline>
    <contour>
      <point x="296" y="276" type="curve" smooth="yes"/>
      <point x="441" y="276"/>
      <point x="554" y="182"/>
      <point x="554" y="9" type="curve" smooth="yes"/>
      <point x="554" y="-146"/>
      <point x="433" y="-259"/>
      <point x="272" y="-259" type="curve" smooth="yes"/>
      <point x="207" y="-259"/>
      <point x="136" y="-241"/>
      <point x="64" y="-199" type="curve"/>
      <point x="124" y="-90" type="line"/>
      <point x="172" y="-118"/>
      <point x="218" y="-130"/>
      <point x="260" y="-130" type="curve" smooth="yes"/>
      <point x="351" y="-130"/>
      <point x="418" y="-71"/>
      <point x="418" y="13" type="curve" smooth="yes"/>
      <point x="418" y="108"/>
      <point x="353" y="151"/>
      <point x="271" y="151" type="curve" smooth="yes"/>
      <point x="254" y="151"/>
      <point x="236" y="149"/>
      <point x="217" y="146" type="curve"/>
      <point x="80" y="146" type="line"/>
      <point x="81" y="534" type="line"/>
      <point x="455" y="534" type="line"/>
      <point x="455" y="410" type="line"/>
      <point x="218" y="410" type="line"/>
      <point x="218" y="269" type="line"/>
      <point x="245" y="274"/>
      <point x="271" y="276"/>
    </contour>
  </outline>
</glyph>
<glyph name="six" format="1">
  <advance width="611"/>
  <unicode hex="0036"/>
  <outline>
    <contour>
      <point x="500" y="759" type="line"/>
      <point x="372" y="718"/>
      <point x="257" y="644"/>
      <point x="166" y="546" type="curve" smooth="yes"/>
      <point x="93" y="467"/>
      <point x="36" y="368"/>
      <point x="36" y="265" type="curve" smooth="yes"/>
      <point x="36" y="107"/>
      <point x="154" y="-10"/>
      <point x="311" y="-10" type="curve" smooth="yes"/>
      <point x="454" y="-10"/>
      <point x="571" y="99"/>
      <point x="571" y="227" type="curve" smooth="yes"/>
      <point x="571" y="353"/>
      <point x="475" y="435"/>
      <point x="350" y="435" type="curve" smooth="yes"/>
      <point x="317" y="435"/>
      <point x="285" y="429"/>
      <point x="255" y="417" type="curve"/>
      <point x="326" y="512"/>
      <point x="438" y="587"/>
      <point x="550" y="635" type="curve"/>
    </contour>
    <contour>
      <point x="426" y="211" type="curve" smooth="yes"/>
      <point x="426" y="158"/>
      <point x="385" y="121"/>
      <point x="330" y="121" type="curve" smooth="yes"/>
      <point x="260" y="121"/>
      <point x="200" y="187"/>
      <point x="200" y="272" type="curve" smooth="yes"/>
      <point x="200" y="286"/>
      <point x="202" y="300"/>
      <point x="205" y="314" type="curve"/>
      <point x="227" y="323"/>
      <point x="251" y="328"/>
      <point x="276" y="328" type="curve" smooth="yes"/>
      <point x="356" y="328"/>
      <point x="426" y="278"/>
    </contour>
  </outline>
</glyph>
<glyph name="seven" format="1">
  <advance width="594"/>
  <unicode hex="0037"/>
  <outline>
    <contour>
      <point x="103" y="530" type="line"/>
      <point x="103" y="397" type="line"/>
      <point x="355" y="396" type="line"/>
      <point x="69" y="-222" type="line"/>
      <point x="235" y="-222" type="line"/>
      <point x="535" y="396" type="line"/>
      <point x="535" y="530" type="line"/>
    </contour>
  </outline>
</glyph>
<glyph name="eight" format="1">
  <advance width="599"/>
  <unicode hex="0038"/>
  <outline>
    <contour>
      <point x="298" y="580" type="curve" smooth="yes"/>
      <point x="261" y="580"/>
      <point x="223" y="555"/>
      <point x="223" y="513" type="curve" smooth="yes"/>
      <point x="223" y="472"/>
      <point x="267" y="436"/>
      <point x="322" y="407" type="curve"/>
      <point x="360" y="433"/>
      <point x="389" y="466"/>
      <point x="389" y="503" type="curve" smooth="yes"/>
      <point x="389" y="554"/>
      <point x="346" y="580"/>
    </contour>
    <contour>
      <point x="442" y="348" type="curve"/>
      <point x="502" y="307"/>
      <point x="545" y="249"/>
      <point x="545" y="168" type="curve" smooth="yes"/>
      <point x="545" y="44"/>
      <point x="431" y="-53"/>
      <point x="297" y="-53" type="curve" smooth="yes"/>
      <point x="293" y="-53" type="line"/>
      <point x="177" y="-51"/>
      <point x="75" y="29"/>
      <point x="72" y="140" type="curve"/>
      <point x="71" y="221"/>
      <point x="124" y="282"/>
      <point x="192" y="330" type="curve"/>
      <point x="132" y="373"/>
      <point x="88" y="433"/>
      <point x="88" y="505" type="curve" smooth="yes"/>
      <point x="88" y="623"/>
      <point x="195" y="703"/>
      <point x="313" y="703" type="curve" smooth="yes"/>
      <point x="433" y="703"/>
      <point x="535" y="621"/>
      <point x="535" y="511" type="curve" smooth="yes"/>
      <point x="535" y="444"/>
      <point x="496" y="389"/>
    </contour>
    <contour>
      <point x="328" y="66" type="curve" smooth="yes"/>
      <point x="372" y="66"/>
      <point x="417" y="95"/>
      <point x="417" y="147" type="curve" smooth="yes"/>
      <point x="417" y="199"/>
      <point x="364" y="239"/>
      <point x="302" y="271" type="curve"/>
      <point x="257" y="245"/>
      <point x="220" y="212"/>
      <point x="220" y="166" type="curve" smooth="yes"/>
      <point x="220" y="110"/>
      <point x="269" y="66"/>
    </contour>
  </outline>
</glyph>
<glyph name="nine" format="1">
  <advance width="616"/>
  <unicode hex="0039"/>
  <outline>
    <contour>
      <point x="304" y="548" type="curve" smooth="yes"/>
      <point x="479" y="548"/>
      <point x="572" y="399"/>
      <point x="572" y="246" type="curve" smooth="yes"/>
      <point x="572" y="112"/>
      <point x="508" y="1"/>
      <point x="420" y="-91" type="curve"/>
      <point x="344" y="-168"/>
      <point x="251" y="-226"/>
      <point x="149" y="-261" type="curve"/>
      <point x="93" y="-121" type="line"/>
      <point x="202" y="-90"/>
      <point x="303" y="-20"/>
      <point x="366" y="72" type="curve"/>
      <point x="342" y="65"/>
      <point x="317" y="61"/>
      <point x="292" y="61" type="curve" smooth="yes"/>
      <point x="154" y="61"/>
      <point x="48" y="154"/>
      <point x="48" y="297" type="curve" smooth="yes"/>
      <point x="48" y="433"/>
      <point x="164" y="548"/>
    </contour>
    <contour>
      <point x="212" y="308" type="curve" smooth="yes"/>
      <point x="212" y="242"/>
      <point x="264" y="183"/>
      <point x="341" y="183" type="curve" smooth="yes"/>
      <point x="371" y="183"/>
      <point x="400" y="193"/>
      <point x="423" y="211" type="curve"/>
      <point x="424" y="220"/>
      <point x="425" y="229"/>
      <point x="425" y="239" type="curve" smooth="yes"/>
      <point x="425" y="331"/>
      <point x="362" y="400"/>
      <point x="298" y="400" type="curve" smooth="yes"/>
      <point x="245" y="400"/>
      <point x="212" y="359"/>
    </contour>
  </outline>
</glyph>
<glyph name="colon" format="1">
  <advance width="391"/>
  <unicode hex="003A"/>
  <outline>
    <contour>
      <point x="130" y="153" type="line"/>
      <point x="281" y="153" type="line"/>
      <point x="281" y="0" type="line"/>
      <point x="130" y="0" type="line"/>
    </contour>
    <contour>
      <point x="130" y="494" type="line"/>
      <point x="281" y="494" type="line"/>
      <point x="281" y="341" type="line"/>
      <point x="130" y="341" type="line"/>
    </contour>
  </outline>
</glyph>
<glyph name="semicolon" format="1">
  <advance width="371"/>
  <unicode hex="003B"/>
  <outline>
    <contour>
      <point x="128" y="341" type="line"/>
      <point x="295" y="341" type="line"/>
      <point x="295" y="485" type="line"/>
      <point x="128" y="485" type="line"/>
    </contour>
    <contour>
      <point x="49" y="-95" type="line"/>
      <point x="182" y="-95" type="line"/>
      <point x="310" y="92" type="line"/>
      <point x="126" y="92" type="line"/>
    </contour>
  </outline>
</glyph>
<glyph name="less" format="1">
  <advance width="831"/>
  <unicode hex="003C"/>
  <outline>
    <contour>
      <point x="292" y="301" type="line"/>
      <point x="710" y="112" type="line"/>
      <point x="710" y="-39" type="line"/>
      <point x="129" y="224" type="line"/>
      <point x="129" y="375" type="line"/>
      <point x="700" y="645" type="line"/>
      <point x="700" y="494" type="line"/>
    </contour>
  </outline>
</glyph>
<glyph name="equal" format="1">
  <advance width="854"/>
  <unicode hex="003D"/>
  <outline>
    <contour>
      <point x="136" y="284" type="line"/>
      <point x="136" y="150" type="line"/>
      <point x="721" y="150" type="line"/>
      <point x="721" y="284" type="line"/>
    </contour>
    <contour>
      <point x="136" y="506" type="line"/>
      <point x="136" y="373" type="line"/>
      <point x="721" y="373" type="line"/>
      <point x="721" y="506" type="line"/>
    </contour>
  </outline>
</glyph>
<glyph name="greater" format="1">
  <advance width="831"/>
  <unicode hex="003E"/>
  <outline>
    <contour>
      <point x="145" y="-39" type="line"/>
      <point x="145" y="112" type="line"/>
      <point x="554" y="301" type="line"/>
      <point x="132" y="494" type="line"/>
      <point x="132" y="645" type="line"/>
      <point x="718" y="377" type="line"/>
      <point x="718" y="226" type="line"/>
    </contour>
  </outline>
</glyph>
<glyph name="question" format="1">
  <advance width="578"/>
  <unicode hex="003F"/>
  <outline>
    <contour>
      <point x="205" y="430" type="line"/>
      <point x="296" y="430"/>
      <point x="393" y="463"/>
      <point x="393" y="554" type="curve" smooth="yes"/>
      <point x="393" y="618"/>
      <point x="339" y="662"/>
      <point x="283" y="662" type="curve" smooth="yes"/>
      <point x="257" y="662"/>
      <point x="229" y="652"/>
      <point x="207" y="630" type="curve"/>
      <point x="147" y="738" type="line"/>
      <point x="198" y="783"/>
      <point x="254" y="803"/>
      <point x="309" y="803" type="curve" smooth="yes"/>
      <point x="440" y="803"/>
      <point x="559" y="691"/>
      <point x="559" y="556" type="curve" smooth="yes"/>
      <point x="559" y="517"/>
      <point x="549" y="475"/>
      <point x="526" y="434" type="curve" smooth="yes"/>
      <point x="491" y="369"/>
      <point x="428" y="337"/>
      <point x="356" y="321" type="curve"/>
      <point x="355" y="226" type="line"/>
      <point x="204" y="226" type="line"/>
      <point x="205" y="352" type="line"/>
    </contour>
    <contour>
      <point x="368" y="-10" type="line"/>
      <point x="190" y="-10" type="line"/>
      <point x="190" y="159" type="line"/>
      <point x="368" y="159" type="line"/>
    </contour>
  </outline>
</glyph>
<glyph name="at" format="1">
  <advance width="852"/>
  <unicode hex="0040"/>
  <outline>
    <contour>
      <point x="585" y="142" type="curve" smooth="yes"/>
      <point x="585" y="119"/>
      <point x="604" y="100"/>
      <point x="624" y="100" type="curve" smooth="yes"/>
      <point x="662" y="100"/>
      <point x="707" y="156"/>
      <point x="707" y="242" type="curve" smooth="yes"/>
      <point x="707" y="385"/>
      <point x="586" y="497"/>
      <point x="441" y="498" type="curve"/>
      <point x="439" y="498" type="line" smooth="yes"/>
      <point x="283" y="498"/>
      <point x="155" y="371"/>
      <point x="154" y="215" type="curve"/>
      <point x="154" y="52"/>
      <point x="288" y="-78"/>
      <point x="451" y="-78" type="curve" smooth="yes"/>
      <point x="455" y="-78" type="line"/>
      <point x="530" y="-77"/>
      <point x="601" y="-46"/>
      <point x="653" y="8" type="curve"/>
      <point x="717" y="-64" type="line"/>
      <point x="645" y="-133"/>
      <point x="550" y="-171"/>
      <point x="451" y="-171" type="curve" smooth="yes"/>
      <point x="234" y="-171"/>
      <point x="60" y="-4"/>
      <point x="60" y="207" type="curve" smooth="yes"/>
      <point x="60" y="419"/>
      <point x="234" y="587"/>
      <point x="444" y="587" type="curve" smooth="yes"/>
      <point x="646" y="587"/>
      <point x="803" y="437"/>
      <point x="803" y="251" type="curve" smooth="yes"/>
      <point x="803" y="116"/>
      <point x="712" y="14"/>
      <point x="616" y="14" type="curve" smooth="yes"/>
      <point x="577" y="14"/>
      <point x="537" y="34"/>
      <point x="516" y="58" type="curve"/>
      <point x="486" y="39"/>
      <point x="451" y="28"/>
      <point x="415" y="28" type="curve" smooth="yes"/>
      <point x="306" y="28"/>
      <point x="234" y="111"/>
      <point x="234" y="217" type="curve" smooth="yes"/>
      <point x="234" y="331"/>
      <point x="329" y="425"/>
      <point x="444" y="425" type="curve" smooth="yes"/>
      <point x="520" y="425"/>
      <point x="608" y="374"/>
      <point x="608" y="302" type="curve" smooth="yes"/>
      <point x="608" y="292"/>
      <point x="594" y="206"/>
      <point x="587" y="161" type="curve" smooth="yes"/>
      <point x="586" y="155"/>
      <point x="585" y="148"/>
    </contour>
    <contour>
      <point x="332" y="213" type="curve" smooth="yes"/>
      <point x="332" y="153"/>
      <point x="370" y="105"/>
      <point x="422" y="105" type="curve" smooth="yes"/>
      <point x="451" y="105"/>
      <point x="474" y="121"/>
      <point x="487" y="142" type="curve"/>
      <point x="487" y="149"/>
      <point x="488" y="157"/>
      <point x="490" y="164" type="curve" smooth="yes"/>
      <point x="499" y="205"/>
      <point x="513" y="273"/>
      <point x="513" y="293" type="curve" smooth="yes"/>
      <point x="513" y="295"/>
      <point x="512" y="297"/>
      <point x="512" y="298" type="curve" smooth="yes"/>
      <point x="500" y="322"/>
      <point x="473" y="334"/>
      <point x="446" y="334" type="curve" smooth="yes"/>
      <point x="380" y="334"/>
      <point x="332" y="277"/>
    </contour>
  </outline>
</glyph>
<glyph name="A" format="1">
  <advance width="770"/>
  <unicode hex="0041"/>
  <outline>
    <contour>
      <point x="489" y="272" type="line"/>
      <point x="414" y="515" type="line"/>
      <point x="311" y="272" type="line"/>
    </contour>
    <contour>
      <point x="525" y="155" type="line"/>
      <point x="262" y="155" type="line"/>
      <point x="196" y="0" type="line"/>
      <point x="35" y="0" type="line"/>
      <point x="350" y="721" type="line"/>
      <point x="501" y="721" type="line"/>
      <point x="729" y="1" type="line"/>
      <point x="573" y="1" type="line"/>
    </contour>
  </outline>
</glyph>
<glyph name="B" format="1">
  <advance width="654"/>
  <unicode hex="0042"/>
  <outline>
    <contour>
      <point x="289" y="722" type="line" smooth="yes"/>
      <point x="431" y="722"/>
      <point x="565" y="685"/>
      <point x="565" y="536" type="curve" smooth="yes"/>
      <point x="565" y="477"/>
      <point x="535" y="431"/>
      <point x="487" y="399" type="curve"/>
      <point x="559" y="364"/>
      <point x="606" y="306"/>
      <point x="606" y="219" type="curve" smooth="yes"/>
      <point x="606" y="66"/>
      <point x="463" y="0"/>
      <point x="294" y="0" type="curve" smooth="yes"/>
      <point x="81" y="0" type="line"/>
      <point x="81" y="722" type="line"/>
    </contour>
    <contour>
      <point x="414" y="533" type="curve" smooth="yes"/>
      <point x="414" y="599"/>
      <point x="351" y="605"/>
      <point x="289" y="605" type="curve" smooth="yes"/>
      <point x="232" y="605" type="line"/>
      <point x="232" y="457" type="line"/>
      <point x="291" y="457" type="line" smooth="yes"/>
      <point x="358" y="457"/>
      <point x="414" y="482"/>
    </contour>
    <contour>
      <point x="294" y="117" type="line" smooth="yes"/>
      <point x="377" y="117"/>
      <point x="458" y="140"/>
      <point x="458" y="228" type="curve" smooth="yes"/>
      <point x="458" y="301"/>
      <point x="383" y="343"/>
      <point x="291" y="343" type="curve" smooth="yes"/>
      <point x="271" y="343"/>
      <point x="252" y="343"/>
      <point x="232" y="342" type="curve"/>
      <point x="232" y="117" type="line"/>
    </contour>
  </outline>
</glyph>
<glyph name="C" format="1">
  <advance width="690"/>
  <unicode hex="0043"/>
  <outline>
    <contour>
      <point x="447" y="144" type="curve" smooth="yes"/>
      <point x="509" y="144"/>
      <point x="559" y="156"/>
      <point x="610" y="181" type="curve"/>
      <point x="677" y="53" type="line"/>
      <point x="598" y="15"/>
      <point x="512" y="-6"/>
      <point x="422" y="-6" type="curve" smooth="yes"/>
      <point x="195" y="-6"/>
      <point x="47" y="132"/>
      <point x="47" y="362" type="curve" smooth="yes"/>
      <point x="47" y="590"/>
      <point x="195" y="734"/>
      <point x="410" y="734" type="curve" smooth="yes"/>
      <point x="516" y="734"/>
      <point x="596" y="708"/>
      <point x="674" y="667" type="curve"/>
      <point x="613" y="544" type="line"/>
      <point x="561" y="572"/>
      <point x="504" y="586"/>
      <point x="445" y="586" type="curve" smooth="yes"/>
      <point x="304" y="586"/>
      <point x="214" y="509"/>
      <point x="214" y="366" type="curve" smooth="yes"/>
      <point x="214" y="231"/>
      <point x="308" y="144"/>
    </contour>
  </outline>
</glyph>
<glyph name="D" format="1">
  <advance width="704"/>
  <unicode hex="0044"/>
  <outline>
    <contour>
      <point x="282" y="721" type="curve" smooth="yes"/>
      <point x="212" y="721" type="line"/>
      <point x="212" y="722" type="line"/>
      <point x="45" y="722" type="line"/>
      <point x="45" y="0" type="line"/>
      <point x="212" y="0" type="line"/>
      <point x="212" y="2" type="line"/>
      <point x="253" y="3"/>
      <point x="294" y="5"/>
      <point x="335" y="5" type="curve" smooth="yes"/>
      <point x="549" y="5"/>
      <point x="682" y="144"/>
      <point x="682" y="351" type="curve" smooth="yes"/>
      <point x="682" y="610"/>
      <point x="531" y="721"/>
    </contour>
    <contour>
      <point x="290" y="130" type="curve" smooth="yes"/>
      <point x="264" y="130"/>
      <point x="238" y="130"/>
      <point x="212" y="131" type="curve"/>
      <point x="212" y="589" type="line"/>
      <point x="303" y="590" type="line" smooth="yes"/>
      <point x="441" y="590"/>
      <point x="516" y="515"/>
      <point x="516" y="381" type="curve" smooth="yes"/>
      <point x="516" y="229"/>
      <point x="433" y="130"/>
    </contour>
  </outline>
</glyph>
<glyph name="E" format="1">
  <advance width="564"/>
  <unicode hex="0045"/>
  <outline>
    <contour>
      <point x="63" y="0" type="line"/>
      <point x="501" y="0" type="line"/>
      <point x="501" y="133" type="line"/>
      <point x="230" y="133" type="line"/>
      <point x="230" y="307" type="line"/>
      <point x="406" y="307" type="line"/>
      <point x="406" y="440" type="line"/>
      <point x="230" y="440" type="line"/>
      <point x="230" y="589" type="line"/>
      <point x="474" y="589" type="line"/>
      <point x="474" y="722" type="line"/>
      <point x="63" y="722" type="line"/>
    </contour>
  </outline>
</glyph>
<glyph name="F" format="1">
  <advance width="533"/>
  <unicode hex="0046"/>
  <outline>
    <contour>
      <point x="63" y="0" type="line"/>
      <point x="230" y="0" type="line"/>
      <point x="230" y="307" type="line"/>
      <point x="418" y="307" type="line"/>
      <point x="418" y="440" type="line"/>
      <point x="230" y="440" type="line"/>
      <point x="230" y="589" type="line"/>
      <point x="477" y="589" type="line"/>
      <point x="477" y="722" type="line"/>
      <point x="63" y="722" type="line"/>
    </contour>
  </outline>
</glyph>
<glyph name="G" format="1">
  <advance width="786"/>
  <unicode hex="0047"/>
  <outline>
    <contour>
      <point x="623" y="540" type="curve"/>
      <point x="681" y="660" type="line"/>
      <point x="601" y="706"/>
      <point x="520" y="733"/>
      <point x="411" y="733" type="curve" smooth="yes"/>
      <point x="195" y="733"/>
      <point x="48" y="588"/>
      <point x="48" y="365" type="curve" smooth="yes"/>
      <point x="48" y="132"/>
      <point x="193" y="-6"/>
      <point x="415" y="-6" type="curve" smooth="yes"/>
      <point x="525" y="-6"/>
      <point x="624" y="25"/>
      <point x="714" y="80" type="curve"/>
      <point x="714" y="366" type="line"/>
      <point x="481" y="366" type="line"/>
      <point x="481" y="249" type="line"/>
      <point x="578" y="249" type="line"/>
      <point x="577" y="160" type="line"/>
      <point x="538" y="149"/>
      <point x="500" y="143"/>
      <point x="455" y="143" type="curve" smooth="yes"/>
      <point x="315" y="143"/>
      <point x="217" y="225"/>
      <point x="217" y="365" type="curve" smooth="yes"/>
      <point x="218" y="501"/>
      <point x="312" y="579"/>
      <point x="449" y="579" type="curve" smooth="yes"/>
      <point x="512" y="579"/>
      <point x="569" y="565"/>
    </contour>
  </outline>
</glyph>
<glyph name="H" format="1">
  <advance width="763"/>
  <unicode hex="0048"/>
  <outline>
    <contour>
      <point x="557" y="722" type="line"/>
      <point x="708" y="722" type="line"/>
      <point x="708" y="0" type="line"/>
      <point x="557" y="0" type="line"/>
      <point x="557" y="294" type="line"/>
      <point x="215" y="294" type="line"/>
      <point x="215" y="0" type="line"/>
      <point x="65" y="0" type="line"/>
      <point x="65" y="722" type="line"/>
      <point x="216" y="722" type="line"/>
      <point x="216" y="431" type="line"/>
      <point x="557" y="431" type="line"/>
    </contour>
  </outline>
</glyph>
<glyph name="I" format="1">
  <advance width="283"/>
  <unicode hex="0049"/>
  <outline>
    <contour>
      <point x="63" y="0" type="line"/>
      <point x="230" y="0" type="line"/>
      <point x="231" y="722" type="line"/>
      <point x="64" y="722" type="line"/>
    </contour>
  </outline>
</glyph>
<glyph name="J" format="1">
  <advance width="341"/>
  <unicode hex="004A"/>
  <outline>
    <contour>
      <point x="287" y="0" type="curve" smooth="yes"/>
      <point x="288" y="722" type="line"/>
      <point x="121" y="722" type="line"/>
      <point x="120" y="0" type="line"/>
      <point x="120" y="-31"/>
      <point x="120" y="-69"/>
      <point x="106" y="-88" type="curve" smooth="yes"/>
      <point x="94" y="-105"/>
      <point x="74" y="-114"/>
      <point x="55" y="-114" type="curve" smooth="yes"/>
      <point x="40" y="-114"/>
      <point x="25" y="-109"/>
      <point x="13" y="-98" type="curve"/>
      <point x="-55" y="-213" type="line"/>
      <point x="-21" y="-237"/>
      <point x="19" y="-250"/>
      <point x="59" y="-250" type="curve" smooth="yes"/>
      <point x="190" y="-250"/>
      <point x="287" y="-132"/>
    </contour>
  </outline>
</glyph>
<glyph name="K" format="1">
  <advance width="674"/>
  <unicode hex="004B"/>
  <outline>
    <contour>
      <point x="68" y="0" type="line"/>
      <point x="68" y="722" type="line"/>
      <point x="219" y="722" type="line"/>
      <point x="219" y="490" type="line"/>
      <point x="455" y="722" type="line"/>
      <point x="639" y="722" type="line"/>
      <point x="284" y="371" type="line"/>
      <point x="638" y="0" type="line"/>
      <point x="457" y="0" type="line"/>
      <point x="219" y="262" type="line"/>
      <point x="219" y="0" type="line"/>
    </contour>
  </outline>
</glyph>
<glyph name="L" format="1">
  <advance width="583"/>
  <unicode hex="004C"/>
  <outline>
    <contour>
      <point x="63" y="0" type="line"/>
      <point x="538" y="0" type="line"/>
      <point x="538" y="133" type="line"/>
      <point x="230" y="133" type="line"/>
      <point x="230" y="722" type="line"/>
      <point x="63" y="722" type="line"/>
    </contour>
  </outline>
</glyph>
<glyph name="M" format="1">
  <advance width="878"/>
  <unicode hex="004D"/>
  <outline>
    <contour>
      <point x="644" y="359" type="line"/>
      <point x="672" y="0" type="line"/>
      <point x="839" y="0" type="line"/>
      <point x="773" y="722" type="line"/>
      <point x="690" y="722" type="line"/>
      <point x="606" y="724" type="line"/>
      <point x="429" y="213" type="line"/>
      <point x="253" y="722" type="line"/>
      <point x="86" y="722" type="line"/>
      <point x="31" y="0" type="line"/>
      <point x="198" y="0" type="line"/>
      <point x="221" y="360" type="line"/>
      <point x="356" y="0" type="line"/>
      <point x="515" y="0" type="line"/>
    </contour>
  </outline>
</glyph>
<glyph name="N" format="1">
  <advance width="773"/>
  <unicode hex="004E"/>
  <outline>
    <contour>
      <point x="68" y="0" type="line"/>
      <point x="68" y="722" type="line"/>
      <point x="219" y="722" type="line"/>
      <point x="574" y="228" type="line"/>
      <point x="574" y="722" type="line"/>
      <point x="725" y="722" type="line"/>
      <point x="725" y="0" type="line"/>
      <point x="574" y="0" type="line"/>
      <point x="219" y="494" type="line"/>
      <point x="219" y="0" type="line"/>
    </contour>
  </outline>
</glyph>
<glyph name="O" format="1">
  <advance width="761"/>
  <unicode hex="004F"/>
  <outline>
    <contour>
      <point x="381" y="577" type="curve" smooth="yes"/>
      <point x="488" y="577"/>
      <point x="569" y="475"/>
      <point x="569" y="357" type="curve" smooth="yes"/>
      <point x="569" y="244"/>
      <point x="502" y="145"/>
      <point x="390" y="145" type="curve" smooth="yes"/>
      <point x="284" y="145"/>
      <point x="202" y="245"/>
      <point x="202" y="363" type="curve" smooth="yes"/>
      <point x="202" y="477"/>
      <point x="272" y="577"/>
    </contour>
    <contour>
      <point x="381" y="-6" type="curve" smooth="yes"/>
      <point x="582" y="-6"/>
      <point x="742" y="162"/>
      <point x="742" y="365" type="curve" smooth="yes"/>
      <point x="742" y="565"/>
      <point x="591" y="729"/>
      <point x="390" y="729" type="curve" smooth="yes"/>
      <point x="190" y="729"/>
      <point x="29" y="561"/>
      <point x="29" y="358" type="curve" smooth="yes"/>
      <point x="29" y="159"/>
      <point x="183" y="-6"/>
    </contour>
  </outline>
</glyph>
<glyph name="P" format="1">
  <advance width="572"/>
  <unicode hex="0050"/>
  <outline>
    <contour>
      <point x="317" y="220" type="curve" smooth="yes"/>
      <point x="284" y="220"/>
      <point x="247" y="226"/>
      <point x="219" y="235" type="curve"/>
      <point x="219" y="0" type="line"/>
      <point x="68" y="0" type="line"/>
      <point x="68" y="722" type="line"/>
      <point x="265" y="722" type="line" smooth="yes"/>
      <point x="403" y="722"/>
      <point x="516" y="669"/>
      <point x="555" y="540" type="curve" smooth="yes"/>
      <point x="564" y="512"/>
      <point x="568" y="484"/>
      <point x="568" y="457" type="curve" smooth="yes"/>
      <point x="568" y="323"/>
      <point x="462" y="220"/>
    </contour>
    <contour>
      <point x="415" y="467" type="curve" smooth="yes"/>
      <point x="415" y="554"/>
      <point x="339" y="585"/>
      <point x="265" y="585" type="curve" smooth="yes"/>
      <point x="219" y="585" type="line"/>
      <point x="219" y="366" type="line"/>
      <point x="238" y="359"/>
      <point x="258" y="355"/>
      <point x="278" y="355" type="curve" smooth="yes"/>
      <point x="355" y="355"/>
      <point x="415" y="404"/>
    </contour>
  </outline>
</glyph>
<glyph name="Q" format="1">
  <advance width="765"/>
  <unicode hex="0051"/>
  <outline>
    <contour>
      <point x="506" y="13" type="curve"/>
      <point x="569" y="-47"/>
      <point x="660" y="-95"/>
      <point x="764" y="-106" type="curve"/>
      <point x="764" y="-229" type="line"/>
      <point x="659" y="-228"/>
      <point x="557" y="-195"/>
      <point x="472" y="-134" type="curve" smooth="yes"/>
      <point x="423" y="-98"/>
      <point x="381" y="-54"/>
      <point x="348" y="-4" type="curve"/>
      <point x="158" y="12"/>
      <point x="27" y="152"/>
      <point x="27" y="362" type="curve" smooth="yes"/>
      <point x="27" y="576"/>
      <point x="174" y="728"/>
      <point x="389" y="728" type="curve" smooth="yes"/>
      <point x="602" y="728"/>
      <point x="746" y="580"/>
      <point x="746" y="359" type="curve" smooth="yes"/>
      <point x="746" y="190"/>
      <point x="653" y="60"/>
    </contour>
    <contour>
      <point x="387" y="585" type="curve" smooth="yes"/>
      <point x="257" y="585"/>
      <point x="185" y="492"/>
      <point x="185" y="363" type="curve" smooth="yes"/>
      <point x="185" y="233"/>
      <point x="268" y="136"/>
      <point x="387" y="136" type="curve" smooth="yes"/>
      <point x="518" y="136"/>
      <point x="589" y="232"/>
      <point x="589" y="358" type="curve" smooth="yes"/>
      <point x="589" y="488"/>
      <point x="507" y="585"/>
    </contour>
  </outline>
</glyph>
<glyph name="R" format="1">
  <advance width="698"/>
  <unicode hex="0052"/>
  <outline>
    <contour>
      <point x="307" y="722" type="curve" smooth="yes"/>
      <point x="85" y="722" type="line"/>
      <point x="85" y="0" type="line"/>
      <point x="252" y="0" type="line"/>
      <point x="252" y="292" type="line"/>
      <point x="282" y="292" type="line" smooth="yes"/>
      <point x="292" y="292"/>
      <point x="303" y="293"/>
      <point x="313" y="293" type="curve"/>
      <point x="504" y="0" type="line"/>
      <point x="696" y="0" type="line"/>
      <point x="475" y="324" type="line"/>
      <point x="560" y="357"/>
      <point x="613" y="414"/>
      <point x="613" y="493" type="curve" smooth="yes"/>
      <point x="613" y="657"/>
      <point x="450" y="722"/>
    </contour>
    <contour>
      <point x="445" y="496" type="curve" smooth="yes"/>
      <point x="445" y="440"/>
      <point x="375" y="408"/>
      <point x="282" y="408" type="curve" smooth="yes"/>
      <point x="252" y="408" type="line"/>
      <point x="252" y="589" type="line"/>
      <point x="307" y="589" type="line" smooth="yes"/>
      <point x="368" y="589"/>
      <point x="445" y="568"/>
    </contour>
  </outline>
</glyph>
<glyph name="S" format="1">
  <advance width="602"/>
  <unicode hex="0053"/>
  <outline>
    <contour>
      <point x="283" y="586" type="curve" smooth="yes"/>
      <point x="291" y="586"/>
      <point x="300" y="585"/>
      <point x="309" y="584" type="curve" smooth="yes"/>
      <point x="356" y="577"/>
      <point x="403" y="567"/>
      <point x="449" y="554" type="curve"/>
      <point x="501" y="686" type="line"/>
      <point x="437" y="712"/>
      <point x="372" y="732"/>
      <point x="291" y="732" type="curve" smooth="yes"/>
      <point x="151" y="732"/>
      <point x="46" y="653"/>
      <point x="46" y="541" type="curve" smooth="yes"/>
      <point x="46" y="400"/>
      <point x="172" y="341"/>
      <point x="282" y="301" type="curve" smooth="yes"/>
      <point x="339" y="280"/>
      <point x="393" y="245"/>
      <point x="393" y="198" type="curve" smooth="yes"/>
      <point x="393" y="153"/>
      <point x="359" y="137"/>
      <point x="320" y="137" type="curve" smooth="yes"/>
      <point x="239" y="137"/>
      <point x="162" y="159"/>
      <point x="91" y="185" type="curve"/>
      <point x="53" y="39" type="line"/>
      <point x="131" y="12"/>
      <point x="208" y="-7"/>
      <point x="298" y="-7" type="curve" smooth="yes"/>
      <point x="455" y="-7"/>
      <point x="574" y="74"/>
      <point x="574" y="198" type="curve" smooth="yes"/>
      <point x="574" y="327"/>
      <point x="473" y="396"/>
      <point x="369" y="434" type="curve" smooth="yes"/>
      <point x="301" y="458"/>
      <point x="223" y="486"/>
      <point x="223" y="535" type="curve" smooth="yes"/>
      <point x="223" y="571"/>
      <point x="252" y="586"/>
    </contour>
  </outline>
</glyph>
<glyph name="T" format="1">
  <advance width="632"/>
  <unicode hex="0054"/>
  <outline>
    <contour>
      <point x="29" y="594" type="line"/>
      <point x="232" y="594" type="line"/>
      <point x="232" y="0" type="line"/>
      <point x="399" y="0" type="line"/>
      <point x="399" y="594" type="line"/>
      <point x="617" y="594" type="line"/>
      <point x="617" y="728" type="line"/>
      <point x="29" y="728" type="line"/>
    </contour>
  </outline>
</glyph>
<glyph name="U" format="1">
  <advance width="712"/>
  <unicode hex="0055"/>
  <outline>
    <contour>
      <point x="52" y="722" type="line"/>
      <point x="52" y="331" type="line" smooth="yes"/>
      <point x="52" y="119"/>
      <point x="152" y="-6"/>
      <point x="357" y="-6" type="curve" smooth="yes"/>
      <point x="576" y="-6"/>
      <point x="684" y="126"/>
      <point x="684" y="352" type="curve" smooth="yes"/>
      <point x="684" y="722" type="line"/>
      <point x="517" y="722" type="line"/>
      <point x="517" y="319" type="line" smooth="yes"/>
      <point x="517" y="214"/>
      <point x="483" y="145"/>
      <point x="387" y="145" type="curve" smooth="yes"/>
      <point x="265" y="145"/>
      <point x="219" y="231"/>
      <point x="219" y="364" type="curve" smooth="yes"/>
      <point x="219" y="722" type="line"/>
    </contour>
  </outline>
</glyph>
<glyph name="V" format="1">
  <advance width="780"/>
  <unicode hex="0056"/>
  <outline>
    <contour>
      <point x="755" y="722" type="line"/>
      <point x="484" y="0" type="line"/>
      <point x="319" y="0" type="line"/>
      <point x="44" y="722" type="line"/>
      <point x="208" y="722" type="line"/>
      <point x="401" y="213" type="line"/>
      <point x="598" y="722" type="line"/>
    </contour>
  </outline>
</glyph>
<glyph name="W" format="1">
  <advance width="964"/>
  <unicode hex="0057"/>
  <outline>
    <contour>
      <point x="949" y="722" type="line"/>
      <point x="743" y="0" type="line"/>
      <point x="607" y="0" type="line"/>
      <point x="506" y="450" type="line"/>
      <point x="402" y="0" type="line"/>
      <point x="266" y="0" type="line"/>
      <point x="36" y="722" type="line"/>
      <point x="187" y="722" type="line"/>
      <point x="325" y="252" type="line"/>
      <point x="435" y="722" type="line"/>
      <point x="569" y="722" type="line"/>
      <point x="674" y="252" type="line"/>
      <point x="799" y="722" type="line"/>
    </contour>
  </outline>
</glyph>
<glyph name="X" format="1">
  <advance width="700"/>
  <unicode hex="0058"/>
  <outline>
    <contour>
      <point x="53" y="722" type="line"/>
      <point x="218" y="722" type="line"/>
      <point x="362" y="496" type="line"/>
      <point x="519" y="722" type="line"/>
      <point x="691" y="722" type="line"/>
      <point x="439" y="376" type="line"/>
      <point x="679" y="0" type="line"/>
      <point x="515" y="0" type="line"/>
      <point x="355" y="250" type="line"/>
      <point x="181" y="0" type="line"/>
      <point x="10" y="0" type="line"/>
      <point x="279" y="368" type="line"/>
    </contour>
  </outline>
</glyph>
<glyph name="Y" format="1">
  <advance width="635"/>
  <unicode hex="0059"/>
  <outline>
    <contour>
      <point x="485" y="722" type="line"/>
      <point x="649" y="722" type="line"/>
      <point x="405" y="338" type="line"/>
      <point x="405" y="0" type="line"/>
      <point x="254" y="0" type="line"/>
      <point x="254" y="304" type="line"/>
      <point x="24" y="722" type="line"/>
      <point x="182" y="722" type="line"/>
      <point x="324" y="457" type="line"/>
    </contour>
  </outline>
</glyph>
<glyph name="Z" format="1">
  <advance width="680"/>
  <unicode hex="005A"/>
  <outline>
    <contour>
      <point x="126" y="570" type="line"/>
      <point x="402" y="571" type="line"/>
      <point x="63" y="145" type="line"/>
      <point x="63" y="-5" type="line"/>
      <point x="628" y="-5" type="line"/>
      <point x="628" y="145" type="line"/>
      <point x="264" y="145" type="line"/>
      <point x="602" y="571" type="line"/>
      <point x="602" y="721" type="line"/>
      <point x="126" y="720" type="line"/>
    </contour>
  </outline>
</glyph>
<glyph name="underscore" format="1">
  <advance width="730"/>
  <unicode hex="005F"/>
  <outline>
    <contour>
      <point x="51" y="-131" type="line"/>
      <point x="691" y="-131" type="line"/>
      <point x="691" y="-282" type="line"/>
      <point x="51" y="-282" type="line"/>
    </contour>
  </outline>
</glyph>
<glyph name="grave" format="1">
  <advance width="371"/>
  <unicode hex="0060"/>
  <outline>
    <contour>
      <point x="199" y="656" type="line"/>
      <point x="50" y="846" type="line"/>
      <point x="215" y="846" type="line"/>
      <point x="350" y="656" type="line"/>
    </contour>
  </outline>
</glyph>
<glyph name="a" format="1">
  <advance width="647"/>
  <unicode hex="0061"/>
  <outline>
    <contour>
      <point x="398" y="345" type="curve"/>
      <point x="392" y="401"/>
      <point x="338" y="428"/>
      <point x="271" y="428" type="curve" smooth="yes"/>
      <point x="226" y="428"/>
      <point x="180" y="414"/>
      <point x="139" y="394" type="curve"/>
      <point x="89" y="495" type="line"/>
      <point x="153" y="526"/>
      <point x="223" y="544"/>
      <point x="293" y="544" type="curve" smooth="yes"/>
      <point x="441" y="544"/>
      <point x="550" y="472"/>
      <point x="550" y="342" type="curve" smooth="yes"/>
      <point x="550" y="0" type="line"/>
      <point x="399" y="0" type="line"/>
      <point x="399" y="50" type="line"/>
      <point x="358" y="12"/>
      <point x="311" y="-11"/>
      <point x="254" y="-11" type="curve" smooth="yes"/>
      <point x="147" y="-11"/>
      <point x="70" y="51"/>
      <point x="70" y="145" type="curve" smooth="yes"/>
      <point x="70" y="277"/>
      <point x="199" y="347"/>
      <point x="352" y="347" type="curve" smooth="yes"/>
      <point x="367" y="347"/>
      <point x="382" y="346"/>
    </contour>
    <contour>
      <point x="220" y="156" type="curve" smooth="yes"/>
      <point x="220" y="123"/>
      <point x="251" y="109"/>
      <point x="287" y="109" type="curve" smooth="yes"/>
      <point x="337" y="109"/>
      <point x="371" y="129"/>
      <point x="399" y="163" type="curve"/>
      <point x="399" y="245" type="line"/>
      <point x="385" y="246"/>
      <point x="371" y="247"/>
      <point x="357" y="247" type="curve" smooth="yes"/>
      <point x="280" y="247"/>
      <point x="220" y="222"/>
    </contour>
  </outline>
</glyph>
<glyph name="b" format="1">
  <advance width="652"/>
  <unicode hex="0062"/>
  <outline>
    <contour>
      <point x="361" y="-6" type="curve" smooth="yes"/>
      <point x="516" y="-6"/>
      <point x="633" y="115"/>
      <point x="633" y="271" type="curve" smooth="yes"/>
      <point x="633" y="440"/>
      <point x="526" y="541"/>
      <point x="363" y="541" type="curve" smooth="yes"/>
      <point x="315" y="541"/>
      <point x="268" y="532"/>
      <point x="225" y="513" type="curve"/>
      <point x="225" y="856" type="line"/>
      <point x="58" y="856" type="line"/>
      <point x="58" y="0" type="line"/>
      <point x="225" y="0" type="line"/>
      <point x="225" y="26" type="line"/>
      <point x="262" y="7"/>
      <point x="309" y="-6"/>
    </contour>
    <contour>
      <point x="316" y="415" type="curve" smooth="yes"/>
      <point x="398" y="415"/>
      <point x="463" y="344"/>
      <point x="463" y="244" type="curve" smooth="yes"/>
      <point x="463" y="169"/>
      <point x="411" y="104"/>
      <point x="323" y="104" type="curve" smooth="yes"/>
      <point x="287" y="104"/>
      <point x="252" y="117"/>
      <point x="225" y="141" type="curve"/>
      <point x="225" y="387" type="line"/>
      <point x="250" y="404"/>
      <point x="279" y="415"/>
    </contour>
  </outline>
</glyph>
<glyph name="c" format="1">
  <advance width="497"/>
  <unicode hex="0063"/>
  <outline>
    <contour>
      <point x="187" y="265" type="curve" smooth="yes"/>
      <point x="187" y="184"/>
      <point x="248" y="119"/>
      <point x="345" y="119" type="curve" smooth="yes"/>
      <point x="376" y="119"/>
      <point x="404" y="128"/>
      <point x="431" y="148" type="curve"/>
      <point x="492" y="52" type="line"/>
      <point x="438" y="10"/>
      <point x="381" y="-11"/>
      <point x="318" y="-11" type="curve" smooth="yes"/>
      <point x="145" y="-11"/>
      <point x="32" y="100"/>
      <point x="32" y="272" type="curve" smooth="yes"/>
      <point x="32" y="427"/>
      <point x="147" y="540"/>
      <point x="308" y="540" type="curve" smooth="yes"/>
      <point x="379" y="540"/>
      <point x="426" y="523"/>
      <point x="475" y="484" type="curve"/>
      <point x="423" y="384" type="line"/>
      <point x="395" y="405"/>
      <point x="364" y="415"/>
      <point x="334" y="415" type="curve" smooth="yes"/>
      <point x="248" y="415"/>
      <point x="187" y="350"/>
    </contour>
  </outline>
</glyph>
<glyph name="d" format="1">
  <advance width="648"/>
  <unicode hex="0064"/>
  <outline>
    <contour>
      <point x="344" y="426" type="curve" smooth="yes"/>
      <point x="248" y="426"/>
      <point x="197" y="367"/>
      <point x="197" y="281" type="curve" smooth="yes"/>
      <point x="197" y="186"/>
      <point x="257" y="117"/>
      <point x="337" y="117" type="curve" smooth="yes"/>
      <point x="381" y="117"/>
      <point x="417" y="136"/>
      <point x="441" y="159" type="curve"/>
      <point x="441" y="236"/>
      <point x="442" y="312"/>
      <point x="442" y="389" type="curve" smooth="yes"/>
      <point x="442" y="406" type="line"/>
      <point x="412" y="418"/>
      <point x="377" y="426"/>
    </contour>
    <contour>
      <point x="290" y="548" type="curve" smooth="yes"/>
      <point x="345" y="548"/>
      <point x="402" y="525"/>
      <point x="442" y="500" type="curve"/>
      <point x="442" y="595"/>
      <point x="441" y="689"/>
      <point x="440" y="783" type="curve"/>
      <point x="591" y="783" type="line"/>
      <point x="592" y="625"/>
      <point x="592" y="466"/>
      <point x="592" y="307" type="curve" smooth="yes"/>
      <point x="592" y="109" type="line" smooth="yes"/>
      <point x="592" y="73"/>
      <point x="591" y="36"/>
      <point x="591" y="0" type="curve"/>
      <point x="440" y="0" type="line"/>
      <point x="440" y="15"/>
      <point x="441" y="31"/>
      <point x="441" y="47" type="curve"/>
      <point x="396" y="14"/>
      <point x="340" y="-6"/>
      <point x="280" y="-6" type="curve" smooth="yes"/>
      <point x="135" y="-5"/>
      <point x="46" y="107"/>
      <point x="46" y="266" type="curve" smooth="yes"/>
      <point x="46" y="431"/>
      <point x="154" y="548"/>
    </contour>
  </outline>
</glyph>
<glyph name="e" format="1">
  <advance width="591"/>
  <unicode hex="0065"/>
  <outline>
    <contour>
      <point x="303" y="544" type="curve" smooth="yes"/>
      <point x="460" y="544"/>
      <point x="556" y="444"/>
      <point x="556" y="285" type="curve" smooth="yes"/>
      <point x="556" y="264"/>
      <point x="554" y="243"/>
      <point x="550" y="223" type="curve"/>
      <point x="202" y="223" type="line"/>
      <point x="223" y="154"/>
      <point x="277" y="112"/>
      <point x="357" y="111" type="curve" smooth="yes"/>
      <point x="396" y="111"/>
      <point x="435" y="121"/>
      <point x="468" y="142" type="curve"/>
      <point x="534" y="45" type="line"/>
      <point x="471" y="9"/>
      <point x="400" y="-10"/>
      <point x="328" y="-10" type="curve" smooth="yes"/>
      <point x="148" y="-10"/>
      <point x="41" y="92"/>
      <point x="41" y="262" type="curve" smooth="yes"/>
      <point x="41" y="426"/>
      <point x="151" y="544"/>
    </contour>
    <contour>
      <point x="404" y="329" type="line"/>
      <point x="391" y="383"/>
      <point x="354" y="423"/>
      <point x="303" y="423" type="curve" smooth="yes"/>
      <point x="241" y="423"/>
      <point x="207" y="382"/>
      <point x="196" y="329" type="curve"/>
    </contour>
  </outline>
</glyph>
<glyph name="f" format="1">
  <advance width="490"/>
  <unicode hex="0066"/>
  <outline>
    <contour>
      <point x="303" y="538" type="line"/>
      <point x="467" y="538" type="line"/>
      <point x="467" y="404" type="line"/>
      <point x="303" y="404" type="line"/>
      <point x="303" y="0" type="line"/>
      <point x="152" y="0" type="line"/>
      <point x="152" y="404" type="line"/>
      <point x="28" y="404" type="line"/>
      <point x="28" y="538" type="line"/>
      <point x="152" y="538" type="line"/>
      <point x="152" y="593" type="line" smooth="yes"/>
      <point x="152" y="724"/>
      <point x="255" y="815"/>
      <point x="369" y="815" type="curve" smooth="yes"/>
      <point x="407" y="815"/>
      <point x="446" y="805"/>
      <point x="483" y="783" type="curve"/>
      <point x="445" y="673" type="line"/>
      <point x="429" y="683"/>
      <point x="412" y="688"/>
      <point x="395" y="688" type="curve" smooth="yes"/>
      <point x="346" y="688"/>
      <point x="303" y="649"/>
      <point x="303" y="593" type="curve" smooth="yes"/>
    </contour>
  </outline>
</glyph>
<glyph name="g" format="1">
  <advance width="602"/>
  <unicode hex="0067"/>
  <outline>
    <contour>
      <point x="437" y="-107" type="curve" smooth="yes"/>
      <point x="437" y="-155"/>
      <point x="374" y="-187"/>
      <point x="306" y="-187" type="curve" smooth="yes"/>
      <point x="223" y="-187"/>
      <point x="161" y="-148"/>
      <point x="161" y="-77" type="curve" smooth="yes"/>
      <point x="161" y="-58"/>
      <point x="165" y="-43"/>
      <point x="171" y="-29" type="curve"/>
      <point x="213" y="-39"/>
      <point x="266" y="-42"/>
      <point x="327" y="-42" type="curve" smooth="yes"/>
      <point x="376" y="-42"/>
      <point x="437" y="-51"/>
    </contour>
    <contour>
      <point x="285" y="-327" type="curve" smooth="yes"/>
      <point x="465" y="-327"/>
      <point x="602" y="-213"/>
      <point x="602" y="-91" type="curve" smooth="yes"/>
      <point x="602" y="34"/>
      <point x="487" y="81"/>
      <point x="378" y="81" type="curve" smooth="yes"/>
      <point x="348" y="81" type="line" smooth="yes"/>
      <point x="250" y="81"/>
      <point x="181" y="84"/>
      <point x="181" y="137" type="curve" smooth="yes"/>
      <point x="181" y="145" type="line"/>
      <point x="213" y="131"/>
      <point x="248" y="124"/>
      <point x="287" y="124" type="curve" smooth="yes"/>
      <point x="426" y="124"/>
      <point x="539" y="224"/>
      <point x="539" y="342" type="curve" smooth="yes"/>
      <point x="539" y="376"/>
      <point x="528" y="411"/>
      <point x="515" y="434" type="curve"/>
      <point x="578" y="433" type="line"/>
      <point x="578" y="517" type="line"/>
      <point x="426" y="513" type="line"/>
      <point x="389" y="531"/>
      <point x="350" y="540"/>
      <point x="302" y="540" type="curve" smooth="yes"/>
      <point x="169" y="540"/>
      <point x="50" y="454"/>
      <point x="50" y="328" type="curve" smooth="yes"/>
      <point x="50" y="282"/>
      <point x="67" y="242"/>
      <point x="94" y="209" type="curve"/>
      <point x="75" y="177"/>
      <point x="66" y="143"/>
      <point x="66" y="101" type="curve" smooth="yes"/>
      <point x="66" y="72"/>
      <point x="71" y="49"/>
      <point x="81" y="30" type="curve"/>
      <point x="48" y="-12"/>
      <point x="30" y="-65"/>
      <point x="30" y="-120" type="curve" smooth="yes"/>
      <point x="30" y="-263"/>
      <point x="140" y="-327"/>
    </contour>
    <contour>
      <point x="293" y="420" type="curve" smooth="yes"/>
      <point x="339" y="420"/>
      <point x="379" y="380"/>
      <point x="380" y="327" type="curve" smooth="yes"/>
      <point x="380" y="281"/>
      <point x="346" y="239"/>
      <point x="297" y="239" type="curve" smooth="yes"/>
      <point x="249" y="239"/>
      <point x="212" y="282"/>
      <point x="212" y="332" type="curve" smooth="yes"/>
      <point x="212" y="381"/>
      <point x="244" y="420"/>
    </contour>
  </outline>
</glyph>
<glyph name="h" format="1">
  <advance width="602"/>
  <unicode hex="0068"/>
  <outline>
    <contour>
      <point x="306" y="410" type="curve" smooth="yes"/>
      <point x="272" y="410"/>
      <point x="241" y="397"/>
      <point x="213" y="377" type="curve"/>
      <point x="213" y="251"/>
      <point x="214" y="126"/>
      <point x="214" y="0" type="curve"/>
      <point x="63" y="0" type="line"/>
      <point x="63" y="242"/>
      <point x="62" y="485"/>
      <point x="62" y="727" type="curve" smooth="yes"/>
      <point x="62" y="783" type="line"/>
      <point x="213" y="783" type="line"/>
      <point x="213" y="727" type="line"/>
      <point x="213" y="489" type="line"/>
      <point x="261" y="522"/>
      <point x="320" y="543"/>
      <point x="374" y="543" type="curve" smooth="yes"/>
      <point x="504" y="543"/>
      <point x="551" y="436"/>
      <point x="551" y="316" type="curve" smooth="yes"/>
      <point x="551" y="211"/>
      <point x="551" y="105"/>
      <point x="552" y="0" type="curve"/>
      <point x="401" y="0" type="line"/>
      <point x="401" y="101"/>
      <point x="400" y="202"/>
      <point x="400" y="303" type="curve" smooth="yes"/>
      <point x="400" y="365"/>
      <point x="362" y="410"/>
    </contour>
  </outline>
</glyph>
<glyph name="i" format="1">
  <advance width="293"/>
  <unicode hex="0069"/>
  <outline>
    <contour>
      <point x="69" y="690" type="line"/>
      <point x="69" y="844" type="line"/>
      <point x="233" y="844" type="line"/>
      <point x="233" y="690" type="line"/>
    </contour>
    <contour>
      <point x="76" y="0" type="line"/>
      <point x="76" y="533" type="line"/>
      <point x="227" y="533" type="line"/>
      <point x="227" y="0" type="line"/>
    </contour>
  </outline>
</glyph>
<glyph name="j" format="1">
  <advance width="390"/>
  <unicode hex="006A"/>
  <outline>
    <contour>
      <point x="133" y="683" type="line"/>
      <point x="316" y="683" type="line"/>
      <point x="316" y="849" type="line"/>
      <point x="133" y="849" type="line"/>
    </contour>
    <contour>
      <point x="64" y="-185" type="curve"/>
      <point x="64" y="-318" type="line"/>
      <point x="75" y="-320"/>
      <point x="86" y="-320"/>
      <point x="96" y="-320" type="curve" smooth="yes"/>
      <point x="212" y="-320"/>
      <point x="308" y="-226"/>
      <point x="308" y="-107" type="curve" smooth="yes"/>
      <point x="308" y="535" type="line"/>
      <point x="141" y="535" type="line"/>
      <point x="141" y="-107" type="line" smooth="yes"/>
      <point x="141" y="-150"/>
      <point x="107" y="-184"/>
    </contour>
  </outline>
</glyph>
<glyph name="k" format="1">
  <advance width="634"/>
  <unicode hex="006B"/>
  <outline>
    <contour>
      <point x="91" y="0" type="line"/>
      <point x="257" y="0" type="line"/>
      <point x="257" y="207" type="line"/>
      <point x="439" y="0" type="line"/>
      <point x="631" y="0" type="line"/>
      <point x="367" y="301" type="line"/>
      <point x="611" y="533" type="line"/>
      <point x="411" y="533" type="line"/>
      <point x="257" y="383" type="line"/>
      <point x="257" y="846" type="line"/>
      <point x="91" y="846" type="line"/>
    </contour>
  </outline>
</glyph>
<glyph name="l" format="1">
  <advance width="310"/>
  <unicode hex="006C"/>
  <outline>
    <contour>
      <point x="76" y="1" type="line"/>
      <point x="243" y="1" type="line"/>
      <point x="242" y="856" type="line"/>
      <point x="75" y="856" type="line"/>
    </contour>
  </outline>
</glyph>
<glyph name="m" format="1">
  <advance width="944"/>
  <unicode hex="006D"/>
  <outline>
    <contour>
      <point x="396" y="371" type="curve" smooth="yes"/>
      <point x="396" y="247"/>
      <point x="396" y="124"/>
      <point x="395" y="1" type="curve"/>
      <point x="562" y="1" type="line"/>
      <point x="563" y="123"/>
      <point x="563" y="244"/>
      <point x="563" y="366" type="curve" smooth="yes"/>
      <point x="563" y="373"/>
      <point x="563" y="380"/>
      <point x="562" y="387" type="curve"/>
      <point x="581" y="416"/>
      <point x="606" y="438"/>
      <point x="642" y="438" type="curve" smooth="yes"/>
      <point x="688" y="438"/>
      <point x="723" y="398"/>
      <point x="723" y="351" type="curve" smooth="yes"/>
      <point x="723" y="234"/>
      <point x="723" y="118"/>
      <point x="724" y="1" type="curve"/>
      <point x="891" y="1" type="line"/>
      <point x="890" y="120"/>
      <point x="890" y="239"/>
      <point x="890" y="358" type="curve" smooth="yes"/>
      <point x="890" y="463"/>
      <point x="801" y="550"/>
      <point x="680" y="550" type="curve" smooth="yes"/>
      <point x="618" y="550"/>
      <point x="559" y="526"/>
      <point x="512" y="484" type="curve"/>
      <point x="475" y="521"/>
      <point x="419" y="548"/>
      <point x="351" y="548" type="curve" smooth="yes"/>
      <point x="309" y="548"/>
      <point x="271" y="535"/>
      <point x="235" y="514" type="curve"/>
      <point x="235" y="533" type="line"/>
      <point x="68" y="533" type="line"/>
      <point x="68" y="431" type="line" smooth="yes"/>
      <point x="68" y="271"/>
      <point x="67" y="159"/>
      <point x="67" y="0" type="curve"/>
      <point x="234" y="0" type="line"/>
      <point x="234" y="151"/>
      <point x="235" y="260"/>
      <point x="235" y="407" type="curve"/>
      <point x="257" y="428"/>
      <point x="280" y="443"/>
      <point x="312" y="443" type="curve" smooth="yes"/>
      <point x="358" y="443"/>
      <point x="396" y="412"/>
    </contour>
  </outline>
</glyph>
<glyph name="n" format="1">
  <advance width="614"/>
  <unicode hex="006E"/>
  <outline>
    <contour>
      <point x="387" y="542" type="curve" smooth="yes"/>
      <point x="514" y="542"/>
      <point x="563" y="443"/>
      <point x="563" y="326" type="curve" smooth="yes"/>
      <point x="563" y="0" type="line"/>
      <point x="412" y="0" type="line"/>
      <point x="412" y="315" type="line" smooth="yes"/>
      <point x="412" y="370"/>
      <point x="373" y="408"/>
      <point x="321" y="408" type="curve" smooth="yes"/>
      <point x="279" y="408"/>
      <point x="247" y="390"/>
      <point x="216" y="366" type="curve"/>
      <point x="216" y="244"/>
      <point x="215" y="122"/>
      <point x="214" y="0" type="curve"/>
      <point x="63" y="0" type="line"/>
      <point x="64" y="144"/>
      <point x="65" y="287"/>
      <point x="65" y="431" type="curve" smooth="yes"/>
      <point x="65" y="533" type="line"/>
      <point x="216" y="533" type="line"/>
      <point x="216" y="481" type="line"/>
      <point x="267" y="518"/>
      <point x="328" y="542"/>
    </contour>
  </outline>
</glyph>
<glyph name="o" format="1">
  <advance width="664"/>
  <unicode hex="006F"/>
  <outline>
    <contour>
      <point x="335" y="398" type="curve" smooth="yes"/>
      <point x="407" y="398"/>
      <point x="461" y="340"/>
      <point x="461" y="259" type="curve" smooth="yes"/>
      <point x="461" y="183"/>
      <point x="416" y="128"/>
      <point x="335" y="128" type="curve" smooth="yes"/>
      <point x="264" y="128"/>
      <point x="209" y="185"/>
      <point x="209" y="266" type="curve" smooth="yes"/>
      <point x="209" y="342"/>
      <point x="253" y="398"/>
    </contour>
    <contour>
      <point x="337" y="-10" type="curve" smooth="yes"/>
      <point x="500" y="-10"/>
      <point x="620" y="102"/>
      <point x="620" y="267" type="curve" smooth="yes"/>
      <point x="620" y="435"/>
      <point x="507" y="541"/>
      <point x="331" y="541" type="curve" smooth="yes"/>
      <point x="166" y="541"/>
      <point x="46" y="428"/>
      <point x="46" y="265" type="curve" smooth="yes"/>
      <point x="46" y="96"/>
      <point x="162" y="-10"/>
    </contour>
  </outline>
</glyph>
<glyph name="p" format="1">
  <advance width="660"/>
  <unicode hex="0070"/>
  <outline>
    <contour>
      <point x="297" y="-6" type="curve" smooth="yes"/>
      <point x="478" y="-6"/>
      <point x="633" y="126"/>
      <point x="633" y="302" type="curve" smooth="yes"/>
      <point x="633" y="443"/>
      <point x="526" y="543"/>
      <point x="369" y="543" type="curve" smooth="yes"/>
      <point x="320" y="543"/>
      <point x="272" y="532"/>
      <point x="228" y="511" type="curve"/>
      <point x="228" y="533" type="line"/>
      <point x="61" y="533" type="line"/>
      <point x="62" y="485"/>
      <point x="62" y="437"/>
      <point x="62" y="389" type="curve" smooth="yes"/>
      <point x="63" y="286"/>
      <point x="63" y="182"/>
      <point x="63" y="79" type="curve" smooth="yes"/>
      <point x="63" y="-47"/>
      <point x="63" y="-173"/>
      <point x="61" y="-300" type="curve"/>
      <point x="228" y="-300" type="line"/>
      <point x="229" y="-200"/>
      <point x="230" y="-99"/>
      <point x="230" y="1" type="curve"/>
      <point x="252" y="-3"/>
      <point x="274" y="-6"/>
    </contour>
    <contour>
      <point x="340" y="428" type="curve" smooth="yes"/>
      <point x="412" y="428"/>
      <point x="468" y="369"/>
      <point x="468" y="294" type="curve" smooth="yes"/>
      <point x="468" y="194"/>
      <point x="388" y="122"/>
      <point x="287" y="122" type="curve" smooth="yes"/>
      <point x="268" y="122"/>
      <point x="248" y="125"/>
      <point x="230" y="131" type="curve"/>
      <point x="230" y="213"/>
      <point x="230" y="295"/>
      <point x="229" y="377" type="curve"/>
      <point x="256" y="405"/>
      <point x="290" y="428"/>
    </contour>
  </outline>
</glyph>
<glyph name="q" format="1">
  <advance width="649"/>
  <unicode hex="0071"/>
  <outline>
    <contour>
      <point x="305" y="543" type="curve" smooth="yes"/>
      <point x="357" y="543"/>
      <point x="407" y="526"/>
      <point x="443" y="504" type="curve"/>
      <point x="443" y="533" type="line"/>
      <point x="594" y="533" type="line"/>
      <point x="594" y="-300" type="line"/>
      <point x="443" y="-300" type="line"/>
      <point x="443" y="26" type="line"/>
      <point x="401" y="5"/>
      <point x="354" y="-7"/>
      <point x="305" y="-7" type="curve" smooth="yes"/>
      <point x="153" y="-7"/>
      <point x="33" y="98"/>
      <point x="33" y="263" type="curve" smooth="yes"/>
      <point x="33" y="417"/>
      <point x="156" y="543"/>
    </contour>
    <contour>
      <point x="363" y="97" type="curve" smooth="yes"/>
      <point x="394" y="97"/>
      <point x="419" y="103"/>
      <point x="443" y="114" type="curve"/>
      <point x="443" y="403" type="line"/>
      <point x="414" y="422"/>
      <point x="380" y="433"/>
      <point x="346" y="433" type="curve" smooth="yes"/>
      <point x="249" y="433"/>
      <point x="190" y="353"/>
      <point x="190" y="270" type="curve" smooth="yes"/>
      <point x="190" y="164"/>
      <point x="272" y="97"/>
    </contour>
  </outline>
</glyph>
<glyph name="r" format="1">
  <advance width="443"/>
  <unicode hex="0072"/>
  <outline>
    <contour>
      <point x="368" y="412" type="curve" smooth="yes"/>
      <point x="306" y="412"/>
      <point x="264" y="388"/>
      <point x="221" y="357" type="curve"/>
      <point x="221" y="0" type="line"/>
      <point x="71" y="0" type="line"/>
      <point x="71" y="533" type="line"/>
      <point x="221" y="533" type="line"/>
      <point x="221" y="486" type="line"/>
      <point x="259" y="517"/>
      <point x="312" y="543"/>
      <point x="371" y="543" type="curve" smooth="yes"/>
      <point x="385" y="543"/>
      <point x="400" y="542"/>
      <point x="414" y="539" type="curve"/>
      <point x="399" y="409" type="line"/>
      <point x="389" y="411"/>
      <point x="378" y="412"/>
    </contour>
  </outline>
</glyph>
<glyph name="s" format="1">
  <advance width="529"/>
  <unicode hex="0073"/>
  <outline>
    <contour>
      <point x="286" y="430" type="curve" smooth="yes"/>
      <point x="251" y="430"/>
      <point x="208" y="426"/>
      <point x="208" y="389" type="curve" smooth="yes"/>
      <point x="208" y="351"/>
      <point x="271" y="340"/>
      <point x="327" y="328" type="curve"/>
      <point x="415" y="311"/>
      <point x="506" y="268"/>
      <point x="506" y="169" type="curve" smooth="yes"/>
      <point x="506" y="61"/>
      <point x="375" y="-6"/>
      <point x="237" y="-6" type="curve" smooth="yes"/>
      <point x="161" y="-6"/>
      <point x="87" y="15"/>
      <point x="21" y="53" type="curve"/>
      <point x="75" y="165" type="line"/>
      <point x="131" y="133"/>
      <point x="194" y="116"/>
      <point x="260" y="116" type="curve" smooth="yes"/>
      <point x="295" y="116"/>
      <point x="333" y="123"/>
      <point x="337" y="154" type="curve"/>
      <point x="341" y="198"/>
      <point x="283" y="200"/>
      <point x="235" y="209" type="curve" smooth="yes"/>
      <point x="148" y="226"/>
      <point x="56" y="276"/>
      <point x="56" y="383" type="curve" smooth="yes"/>
      <point x="56" y="473"/>
      <point x="141" y="541"/>
      <point x="257" y="541" type="curve" smooth="yes"/>
      <point x="332" y="541"/>
      <point x="394" y="521"/>
      <point x="453" y="490" type="curve"/>
      <point x="407" y="386" type="line"/>
      <point x="373" y="415"/>
      <point x="330" y="430"/>
    </contour>
  </outline>
</glyph>
<glyph name="t" format="1">
  <advance width="464"/>
  <unicode hex="0074"/>
  <outline>
    <contour>
      <point x="28" y="408" type="line"/>
      <point x="25" y="539" type="line"/>
      <point x="135" y="539" type="line"/>
      <point x="135" y="612" type="line"/>
      <point x="286" y="704" type="line"/>
      <point x="286" y="539" type="line"/>
      <point x="433" y="539" type="line"/>
      <point x="433" y="409" type="line"/>
      <point x="286" y="409" type="line"/>
      <point x="286" y="245" type="line"/>
      <point x="286" y="203" type="line" smooth="yes"/>
      <point x="286" y="158"/>
      <point x="290" y="122"/>
      <point x="331" y="122" type="curve" smooth="yes"/>
      <point x="350" y="122"/>
      <point x="368" y="126"/>
      <point x="384" y="134" type="curve"/>
      <point x="427" y="27" type="line"/>
      <point x="379" y="5"/>
      <point x="328" y="-6"/>
      <point x="276" y="-6" type="curve" smooth="yes"/>
      <point x="188" y="-6"/>
      <point x="135" y="64"/>
      <point x="135" y="155" type="curve" smooth="yes"/>
      <point x="135" y="408" type="line"/>
    </contour>
  </outline>
</glyph>
<glyph name="u" format="1">
  <advance width="616"/>
  <unicode hex="0075"/>
  <outline>
    <contour>
      <point x="312" y="126" type="curve" smooth="yes"/>
      <point x="268" y="126"/>
      <point x="230" y="158"/>
      <point x="230" y="201" type="curve" smooth="yes"/>
      <point x="230" y="533" type="line"/>
      <point x="63" y="533" type="line"/>
      <point x="63" y="146" type="line" smooth="yes"/>
      <point x="63" y="58"/>
      <point x="144" y="-8"/>
      <point x="244" y="-8" type="curve" smooth="yes"/>
      <point x="301" y="-8"/>
      <point x="355" y="13"/>
      <point x="402" y="47" type="curve"/>
      <point x="402" y="0" type="line"/>
      <point x="569" y="0" type="line"/>
      <point x="569" y="533" type="line"/>
      <point x="402" y="533" type="line"/>
      <point x="402" y="172" type="line"/>
      <point x="377" y="146"/>
      <point x="349" y="126"/>
    </contour>
  </outline>
</glyph>
<glyph name="v" format="1">
  <advance width="589"/>
  <unicode hex="0076"/>
  <outline>
    <contour>
      <point x="16" y="533" type="line"/>
      <point x="180" y="533" type="line"/>
      <point x="300" y="194" type="line"/>
      <point x="416" y="533" type="line"/>
      <point x="580" y="533" type="line"/>
      <point x="371" y="0" type="line"/>
      <point x="234" y="0" type="line"/>
    </contour>
  </outline>
</glyph>
<glyph name="w" format="1">
  <advance width="942"/>
  <unicode hex="0077"/>
  <outline>
    <contour>
      <point x="37" y="533" type="line"/>
      <point x="224" y="0" type="line"/>
      <point x="391" y="0" type="line"/>
      <point x="472" y="273" type="line"/>
      <point x="549" y="0" type="line"/>
      <point x="716" y="0" type="line"/>
      <point x="930" y="533" type="line"/>
      <point x="763" y="533" type="line"/>
      <point x="630" y="202" type="line"/>
      <point x="549" y="533" type="line"/>
      <point x="399" y="533" type="line"/>
      <point x="297" y="223" type="line"/>
      <point x="203" y="533" type="line"/>
    </contour>
  </outline>
</glyph>
<glyph name="x" format="1">
  <advance width="596"/>
  <unicode hex="0078"/>
  <outline>
    <contour>
      <point x="60" y="533" type="line"/>
      <point x="236" y="533" type="line"/>
      <point x="310" y="416" type="line"/>
      <point x="399" y="533" type="line"/>
      <point x="577" y="533" type="line"/>
      <point x="396" y="278" type="line"/>
      <point x="572" y="0" type="line"/>
      <point x="396" y="0" type="line"/>
      <point x="307" y="141" type="line"/>
      <point x="199" y="0" type="line"/>
      <point x="21" y="0" type="line"/>
      <point x="221" y="278" type="line"/>
    </contour>
  </outline>
</glyph>
<glyph name="y" format="1">
  <advance width="599"/>
  <unicode hex="0079"/>
  <outline>
    <contour>
      <point x="25" y="533" type="line"/>
      <point x="187" y="533" type="line"/>
      <point x="301" y="255" type="line"/>
      <point x="431" y="533" type="line"/>
      <point x="582" y="533" type="line"/>
      <point x="206" y="-300" type="line"/>
      <point x="43" y="-300" type="line"/>
      <point x="219" y="78" type="line"/>
    </contour>
  </outline>
</glyph>
<glyph name="z" format="1">
  <advance width="528"/>
  <unicode hex="007A"/>
  <outline>
    <contour>
      <point x="88" y="402" type="line"/>
      <point x="88" y="532" type="line"/>
      <point x="484" y="533" type="line"/>
      <point x="484" y="403" type="line"/>
      <point x="224" y="130" type="line"/>
      <point x="494" y="130" type="line"/>
      <point x="494" y="0" type="line"/>
      <point x="45" y="0" type="line"/>
      <point x="45" y="130" type="line"/>
      <point x="304" y="403" type="line"/>
    </contour>
  </outline>
</glyph>
<glyph name="bar" format="1">
  <advance width="130"/>
  <unicode hex="007C"/>
  <outline>
    <contour>
      <point x="-12" y="-382" type="line"/>
      <point x="155" y="-382" type="line"/>
      <point x="155" y="-380" type="line"/>
      <point x="-12" y="-380" type="line"/>
    </contour>
    <contour>
      <point x="-12" y="926" type="line"/>
      <point x="155" y="926" type="line"/>
      <point x="155" y="929" type="line"/>
      <point x="-12" y="929" type="line"/>
    </contour>
    <contour>
      <point x="-12" y="847" type="line"/>
      <point x="-12" y="786" type="line"/>
      <point x="155" y="786" type="line"/>
      <point x="155" y="847" type="line"/>
    </contour>
    <contour>
      <point x="-12" y="535" type="line"/>
      <point x="155" y="535" type="line"/>
      <point x="155" y="772" type="line"/>
      <point x="-12" y="772" type="line"/>
    </contour>
    <contour>
      <point x="-12" y="1" type="line"/>
      <point x="155" y="1" type="line"/>
      <point x="155" y="532" type="line"/>
      <point x="-12" y="532" type="line"/>
    </contour>
    <contour>
      <point x="-12" y="-300" type="line"/>
      <point x="155" y="-300" type="line"/>
      <point x="155" y="-1" type="line"/>
      <point x="-12" y="-1" type="line"/>
    </contour>
  </outline>
</glyph>
